<?xml version="1.0" encoding="UTF-8" standalone="no"?>
<svg width="375px" height="667px" viewBox="0 0 375 667" version="1.1" xmlns="http://www.w3.org/2000/svg" xmlns:xlink="http://www.w3.org/1999/xlink" xmlns:sketch="http://www.bohemiancoding.com/sketch/ns">
    <!-- Generator: sketchtool 3.4.4 (395) - http://www.bohemiancoding.com/sketch -->
    <title>bg</title>
    <desc>Created with sketchtool.</desc>
    <defs></defs>
    <g id="Page-1" stroke="none" stroke-width="1" fill="none" fill-rule="evenodd" sketch:type="MSPage">
        <g id="结果-中奖-4" sketch:type="MSArtboardGroup">
            <g id="bg" sketch:type="MSLayerGroup" transform="translate(-346.000000, -90.000000)">
                <rect id="Rectangle-1" stroke="#979797" fill="#E96F00" sketch:type="MSShapeGroup" x="346" y="90" width="375" height="667"></rect>
                <path d="M476.5,0 L590.5,0 L537.5,448 L529.5,448 L476.5,0 Z M644.150345,8.49737988 L752.570788,43.7253172 L563.725179,453.420736 L556.116727,450.9486 L644.150345,8.49737988 Z M800.969463,68.3856741 L893.197401,135.393193 L586.991707,466.680188 L580.519571,461.977906 L800.969463,68.3856741 Z M931.606807,173.802599 L998.614326,266.030537 L605.022094,486.480429 L600.319812,480.008293 L931.606807,173.802599 Z M1023.27468,314.429212 L1058.50262,422.849655 L616.0514,510.883273 L613.579264,503.274821 L1023.27468,314.429212 Z M1067,476.5 L1067,590.5 L619,537.5 L619,529.5 L1067,476.5 Z M1058.50262,644.150345 L1023.27468,752.570788 L613.579264,563.725179 L616.0514,556.116727 L1058.50262,644.150345 Z M998.614326,800.969463 L931.606807,893.197401 L600.319812,586.991707 L605.022094,580.519571 L998.614326,800.969463 Z M893.197401,931.606807 L800.969463,998.614326 L580.519571,605.022094 L586.991707,600.319812 L893.197401,931.606807 Z M752.570788,1023.27468 L644.150345,1058.50262 L556.116727,616.0514 L563.725179,613.579264 L752.570788,1023.27468 Z M590.5,1067 L476.5,1067 L529.5,619 L537.5,619 L590.5,1067 Z M422.849655,1058.50262 L314.429212,1023.27468 L503.274821,613.579264 L510.883273,616.0514 L422.849655,1058.50262 Z M266.030537,998.614326 L173.802599,931.606807 L480.008293,600.319812 L486.480429,605.022094 L266.030537,998.614326 Z M135.393193,893.197401 L68.3856741,800.969463 L461.977906,580.519571 L466.680188,586.991707 L135.393193,893.197401 Z M43.7253172,752.570788 L8.49737988,644.150345 L450.9486,556.116727 L453.420736,563.725179 L43.7253172,752.570788 Z M2.84217094e-14,590.5 L7.48024916e-15,476.5 L448,529.5 L448,537.5 L2.84217094e-14,590.5 Z M8.49737988,422.849655 L43.7253172,314.429212 L453.420736,503.274821 L450.9486,510.883273 L8.49737988,422.849655 Z M68.3856741,266.030537 L135.393193,173.802599 L466.680188,480.008293 L461.977906,486.480429 L68.3856741,266.030537 Z M173.802599,135.393193 L266.030537,68.3856741 L486.480429,461.977906 L480.008293,466.680188 L173.802599,135.393193 Z M314.429212,43.7253172 L422.849655,8.49737988 L510.883273,450.9486 L503.274821,453.420736 L314.429212,43.7253172 Z" id="light" opacity="0.2" fill="#F5A85F" sketch:type="MSShapeGroup"></path>
            </g>
        </g>
    </g>
</svg>